<svg xmlns="http://www.w3.org/2000/svg" width="108" height="108" viewBox="0 0 108 108">
  <defs>
    <linearGradient id="body" gradientUnits="userSpaceOnUse" x1="54.0" y1="35.0" x2="54.0" y2="81.0">
      <stop offset="0.0" stop-color="#FFE380"/>
      <stop offset="1.0" stop-color="#FFC12E"/>
    </linearGradient>
  </defs>
  <g transform="translate(54 54) scale(0.87) translate(-54 -54)">
    <path d="M46,39 C43,32 41,29 39,27.5" fill="none" stroke="#4A2A00" stroke-width="3.2" stroke-linecap="round"/>
    <path d="M62,39 C65,32 67,29 69,27.5" fill="none" stroke="#4A2A00" stroke-width="3.2" stroke-linecap="round"/>
    <path d="M34.8,26.5 a3.2,3.2 0 1,1 6.4,0 a3.2,3.2 0 1,1 -6.4,0 Z" fill="#4A2A00"/>
    <path d="M66.8,26.5 a3.2,3.2 0 1,1 6.4,0 a3.2,3.2 0 1,1 -6.4,0 Z" fill="#4A2A00"/>
    <g transform="rotate(-28 33 43)">
      <path d="M21,43 a12,8.5 0 1,1 24,0 a12,8.5 0 1,1 -24,0 Z" fill="#FFFFFF" fill-opacity="0.92" stroke="#4A2A00" stroke-width="3.4"/>
    </g>
    <g transform="rotate(28 75 43)">
      <path d="M63,43 a12,8.5 0 1,1 24,0 a12,8.5 0 1,1 -24,0 Z" fill="#FFFFFF" fill-opacity="0.92" stroke="#4A2A00" stroke-width="3.4"/>
    </g>
    <path d="M29.0,58.0 a25.0,23.0 0 1,1 50.0,0 a25.0,23.0 0 1,1 -50.0,0 Z" fill="url(#body)"/>
    <clipPath id="clip98107"><path d="M29.0,58.0 a25.0,23.0 0 1,1 50.0,0 a25.0,23.0 0 1,1 -50.0,0 Z"/></clipPath>
    <g clip-path="url(#clip98107)">
      <g >
        <g transform="rotate(-5 54.0 58.0)">
          <path d="M28,62 L80,62 a4,4 0 0,1 4,4 L84,66 a4,4 0 0,1 -4,4 L28,70 a4,4 0 0,1 -4,-4 L24,66 a4,4 0 0,1 4,-4 Z" fill="#4A2A00"/>
          <path d="M28,74 L80,74 a4,4 0 0,1 4,4 L84,78 a4,4 0 0,1 -4,4 L28,82 a4,4 0 0,1 -4,-4 L24,78 a4,4 0 0,1 4,-4 Z" fill="#4A2A00"/>
        </g>
      </g>
    </g>
    <path d="M29.0,58.0 a25.0,23.0 0 1,1 50.0,0 a25.0,23.0 0 1,1 -50.0,0 Z" fill="none" stroke="#4A2A00" stroke-width="4"/>
    <path d="M32.5,57 a5,3.2 0 1,1 10,0 a5,3.2 0 1,1 -10,0 Z" fill="#FF7A59" fill-opacity="0.6"/>
    <path d="M65.5,57 a5,3.2 0 1,1 10,0 a5,3.2 0 1,1 -10,0 Z" fill="#FF7A59" fill-opacity="0.6"/>
    <path d="M41.2,50 a4.3,4.3 0 1,1 8.6,0 a4.3,4.3 0 1,1 -8.6,0 Z" fill="#3A2000"/>
    <path d="M58.2,50 a4.3,4.3 0 1,1 8.6,0 a4.3,4.3 0 1,1 -8.6,0 Z" fill="#3A2000"/>
    <path d="M42.4,48.4 a1.7,1.7 0 1,1 3.4,0 a1.7,1.7 0 1,1 -3.4,0 Z" fill="#FFFFFF"/>
    <path d="M59.4,48.4 a1.7,1.7 0 1,1 3.4,0 a1.7,1.7 0 1,1 -3.4,0 Z" fill="#FFFFFF"/>
    <path d="M49.5,56.5 Q54,61 58.5,56.5" fill="none" stroke="#3A2000" stroke-width="2.6" stroke-linecap="round"/>
  </g>
</svg>
